<svg width="31" height="21" viewBox="0 0 31 21" fill="none" xmlns="http://www.w3.org/2000/svg">
<path d="M0 2.9995C0 1.96139 0.575033 1.40163 1.7251 1.32021L6.15682 1.35074C6.45425 1.35074 6.65254 1.5034 6.75168 1.80873C7.20774 3.33536 7.71833 4.65335 8.28345 5.76269C8.84857 6.87204 9.58719 8.14932 10.4993 9.59453C10.5786 9.77772 10.7075 9.86932 10.886 9.86932C11.0248 9.86932 11.1338 9.79808 11.2131 9.65559L11.3024 9.31974L11.3321 4.03761C11.3321 3.67122 11.2478 3.42696 11.0793 3.30483C10.9108 3.18269 10.5985 3.0911 10.1424 3.03003C9.78547 2.96897 9.60702 2.74506 9.60702 2.35832C9.60702 2.2769 9.61693 2.21583 9.63676 2.17512C10.0532 0.852044 11.2429 0.190506 13.2059 0.190506L14.8715 0.159973C15.625 0.159973 16.2496 0.353346 16.7454 0.740091C17.2411 1.12684 17.4889 1.73749 17.4889 2.57204V9.50293C17.6277 9.60471 17.7566 9.65559 17.8756 9.65559C18.173 9.65559 18.4308 9.4724 18.6489 9.10601C20.8301 5.97133 22.0099 3.87477 22.1883 2.8163C22.1883 2.79595 22.2082 2.74506 22.2478 2.66364C22.3866 2.35832 22.6147 2.0937 22.9319 1.8698C23.2492 1.64589 23.5268 1.49323 23.7647 1.41181C23.844 1.3711 23.9333 1.35074 24.0324 1.35074H28.6426L28.94 1.38127C29.3366 1.38127 29.6439 1.57465 29.8621 1.96139C29.9414 2.08352 29.9959 2.21583 30.0256 2.35832C30.0554 2.5008 30.0752 2.64329 30.0851 2.78577C30.095 2.92826 30.1 3.00968 30.1 3.03003V3.24376C29.9612 4.07832 29.6092 4.96885 29.0441 5.91536C28.479 6.86187 27.7602 7.88471 26.8877 8.98388C26.0153 10.083 25.47 10.8057 25.2519 11.1517C25.0734 11.3959 24.9842 11.6199 24.9842 11.8234C24.9842 11.9862 25.0635 12.1694 25.2221 12.373L29.5646 17.991C29.8026 18.3167 29.9215 18.6729 29.9215 19.0596C29.9215 19.5278 29.7431 19.9145 29.3862 20.2199C29.0292 20.5252 28.6029 20.6982 28.1072 20.7389L27.6016 20.7694H23.0806C23.0608 20.7694 23.0211 20.7745 22.9617 20.7847C22.9022 20.7949 22.8625 20.8 22.8427 20.8C22.4065 20.8 22 20.6066 21.6232 20.2199C21.4844 20.057 20.5525 18.8561 18.8274 16.617C18.7282 16.4745 18.5894 16.3422 18.411 16.2201C18.3317 16.5458 18.2276 17.0139 18.0987 17.6246C17.9698 18.2352 17.8756 18.6729 17.8161 18.9375L17.7269 19.4565C17.5286 20.169 17.1122 20.5964 16.4777 20.7389L16.0613 20.7694H13.1464C11.5007 20.7694 9.85983 19.9959 8.22396 18.449C6.58809 16.902 5.11581 14.9021 3.80711 12.4493C2.49842 9.99654 1.27895 7.14175 0.148715 3.88494C0.0495718 3.62033 0 3.32518 0 2.9995ZM17.8756 10.9074C17.4592 10.9074 17.0824 10.7904 16.7454 10.5563C16.4083 10.3222 16.2397 10.0016 16.2397 9.59453V2.57204C16.2397 2.16494 16.1406 1.87488 15.9423 1.70187C15.744 1.52885 15.397 1.44234 14.9013 1.44234L13.2059 1.5034C12.3533 1.5034 11.7089 1.65607 11.2726 1.96139C12.1451 2.38885 12.5813 3.08092 12.5813 4.03761V9.41133C12.5417 9.92021 12.3434 10.3426 11.9865 10.6784C11.6295 11.0143 11.233 11.1822 10.7967 11.1822C10.2019 11.1822 9.74582 10.8871 9.42856 10.2968C7.88192 7.89488 6.73185 5.61512 5.97836 3.45749L5.71067 2.66364L1.75484 2.63311C1.49707 2.63311 1.35331 2.64838 1.32357 2.67891C1.29382 2.70944 1.27895 2.79595 1.27895 2.93843C1.27895 3.12163 1.29878 3.315 1.33844 3.51855L1.96304 5.22838C3.62866 9.64542 5.43803 13.1261 7.39116 15.6705C9.34429 18.2149 11.2627 19.4871 13.1464 19.4871H16.1208C16.2397 19.4871 16.329 19.4515 16.3884 19.3802C16.4479 19.309 16.4975 19.1716 16.5372 18.968L16.5966 18.6627L17.1618 15.9758C17.3204 15.6094 17.4592 15.3652 17.5782 15.243C17.7963 15.0191 18.0541 14.9072 18.3515 14.9072C18.8274 14.9072 19.3132 15.2023 19.8089 15.7926L22.3371 19.0901C22.4957 19.3548 22.6642 19.4871 22.8427 19.4871H27.7503C28.3452 19.4871 28.6426 19.3344 28.6426 19.0291C28.6426 18.9273 28.6128 18.8255 28.5534 18.7238L24.2406 13.1974C23.9035 12.7699 23.735 12.3119 23.735 11.8234C23.735 11.3349 23.8936 10.8667 24.2109 10.4189C24.4686 10.0118 24.9693 9.335 25.7129 8.38849C26.4565 7.44198 27.1059 6.55654 27.6611 5.73216C28.2163 4.90778 28.5831 4.15974 28.7616 3.48802L28.8508 3.0911C28.831 3.05039 28.821 2.98423 28.821 2.89264C28.821 2.80104 28.8111 2.72471 28.7913 2.66364H24.1216C23.8242 2.78577 23.5863 2.96897 23.4078 3.21323L23.2293 3.79335C22.7336 5.19784 21.4348 7.36565 19.333 10.2968C18.9166 10.7039 18.4308 10.9074 17.8756 10.9074Z" fill="#101010"/>
</svg>
